<svg xmlns="http://www.w3.org/2000/svg" id="a" width="88.0424" height="41.8838" viewBox="0 0 88.0424 41.8838"><path d="M87.6362,13.1216c-.2708-.8666-.7177-1.5843-1.3406-2.1531-.5958-.5687-1.3948-.8531-2.3968-.8531-.6771,0-1.3136,.2302-1.9094,.6906-.5958,.4334-.8937,1.124-.8937,2.0719,0,.65,.2437,1.2052,.7312,1.6656,.4875,.4604,1.0698,.6906,1.7469,.6906h.2843c.0813,0,.1761-.0135,.2844-.0406,.2979,.325,.4604,.8125,.4875,1.4625,.0271,.6229,.0271,1.0833,0,1.3812-.0542,.8937-.2031,1.8687-.4469,2.9249-.2166,1.0563-.5146,2.1667-.8937,3.3312-.3792,1.1646-.8531,2.3698-1.4219,3.6156h-.0406c-.2979-1.7604-.7042-3.4937-1.2187-5.1999-.4875-1.7333-1.0021-3.3312-1.5438-4.7937-.5416-1.4625-1.002-2.6541-1.3812-3.5749-.2708-.6771-.6364-1.3406-1.0968-1.9906-.4334-.65-.975-1.1781-1.625-1.5844-.6229-.4333-1.3813-.65-2.275-.65-1.0833,0-2.0041,.2302-2.7624,.6906-.7313,.4334-1.3407,1.0021-1.8281,1.7063-.4604,.677-.8125,1.3812-1.0563,2.1124-.2166,.7313-.3521,1.3948-.4062,1.9906l2.2749,.325c.1355-1.2729,.3792-2.0989,.7313-2.4781,.3792-.3792,.7448-.5687,1.0968-.5687,.4604,0,.8396,.2573,1.1375,.7719,.325,.5145,.5823,.9885,.7719,1.4218,.5146,1.1917,1.0698,2.5187,1.6656,3.9812,.5958,1.4354,1.1646,2.9385,1.7062,4.5093,.5688,1.5437,1.0698,3.0739,1.5031,4.5906,.4333,1.4895,.7448,2.8843,.9344,4.1843-.1625,.3792-.4333,.826-.8125,1.3406-.3521,.5417-.7583,1.0698-1.2188,1.5844-.4604,.5146-.9479,.948-1.4625,1.3-.4875,.3521-.9615,.5281-1.4219,.5281h-.2031c-.0812,0-.149-.0135-.2031-.0406-.2167-1.4625-1.0427-2.1937-2.4781-2.1937-.6229,0-1.2187,.2573-1.7875,.7719-.5416,.5145-.8125,1.2052-.8125,2.0718,0,.9208,.325,1.6792,.975,2.275,.6771,.5958,1.6385,.8937,2.8843,.8937,1.4084,0,2.8031-.5146,4.1844-1.5437,1.3812-1.0021,2.6947-2.3562,3.9405-4.0625,1.2458-1.6791,2.3833-3.5072,3.4125-5.4843,.9208-1.8146,1.7197-3.6427,2.3968-5.4843,.7042-1.8688,1.2458-3.6292,1.625-5.2812,.3792-1.6521,.5687-3.0604,.5687-4.225,0-.9208-.1354-1.8145-.4062-2.6812Z"></path><path d="M18.0779,17.2654c-.8666-.7312-1.8281-1.3677-2.8843-1.9093-1.0563-.5417-2.0854-1.0156-3.0875-1.4219-1.4625-.5958-2.6677-1.1645-3.6156-1.7062-.9208-.5687-1.5979-1.1646-2.0312-1.7875-.4333-.65-.6365-1.3947-.6094-2.2343,.0541-1.0291,.5281-1.8687,1.4219-2.5187,.9208-.65,1.9635-.975,3.1281-.975,1.2729-.027,2.3697,.2167,3.2906,.7313,.9479,.5146,1.7062,1.2864,2.2749,2.3156,.5688,1.0021,.9344,2.2614,1.0969,3.7781h2.6812l.4875-9.4655h-3.1281v1.6656c-.8395-.65-1.8958-1.1375-3.1687-1.4625s-2.451-.4875-3.5343-.4875c-1.7875,0-3.3041,.2437-4.5499,.7313-1.2458,.4875-2.2614,1.1239-3.0468,1.9093-.7584,.7584-1.3271,1.5979-1.7062,2.5187-.3521,.8937-.5552,1.7604-.6094,2.6-.0812,1.7604,.2437,3.2499,.975,4.4687,.7313,1.2187,1.7739,2.2614,3.1281,3.128,1.3541,.8667,2.8843,1.6521,4.5905,2.3563,1.0021,.4062,1.9907,.8395,2.9656,1.2999,.975,.4333,1.774,.975,2.3969,1.625,.6229,.6229,.9073,1.4083,.8531,2.3562-.0271,.6771-.2708,1.3136-.7312,1.9094-.4334,.5687-1.0292,1.0291-1.7875,1.3812-.7313,.3521-1.5844,.5281-2.5594,.5281-1.2458,0-2.3832-.2573-3.4124-.7718-1.0291-.5146-1.8687-1.2729-2.5187-2.275-.65-1.0292-1.0563-2.302-1.2188-3.8187H.4875l-.4875,9.5061H3.1281v-1.7062c1.0292,.65,2.1667,1.1375,3.4125,1.4625,1.2729,.3521,2.4374,.5281,3.4937,.5281,2.1124,0,3.9676-.3385,5.5655-1.0156,1.5979-.7042,2.8573-1.6792,3.7781-2.925,.9479-1.2458,1.4625-2.6676,1.5437-4.2655,.0542-1.3271-.1896-2.4781-.7312-3.4531-.5146-1.0021-1.2188-1.8687-2.1125-2.6Z"></path><path d="M38.965,25.1871c.8396-1.8687,1.2594-3.8729,1.2594-6.0124,0-1.9229-.3656-3.5614-1.0969-4.9156-.7312-1.3541-1.7197-2.3833-2.9655-3.0874-1.2188-.7042-2.5865-1.0563-4.1031-1.0563-2.0854,0-3.8999,.5552-5.4437,1.6656-1.5166,1.0833-2.6947,2.5323-3.5343,4.3468-.8125,1.8146-1.2187,3.8052-1.2187,5.9718,0,1.6792,.2979,3.2229,.8937,4.6312,.5958,1.4083,1.5031,2.5323,2.7218,3.3718,1.2188,.8125,2.7354,1.2188,4.55,1.2188,2.1124,0,3.927-.5552,5.4436-1.6656,1.5167-1.1375,2.6813-2.6271,3.4937-4.4688Zm-4.6311-2.1531c-.1355,.9479-.3657,1.8552-.6907,2.7218-.2979,.8396-.6906,1.5302-1.1781,2.0719-.4875,.5416-1.0833,.8125-1.7874,.8125-.65,0-1.1917-.2438-1.625-.7313-.4063-.4875-.7448-1.1104-1.0156-1.8687-.2438-.7854-.4198-1.625-.5281-2.5187-.0813-.8938-.1219-1.7469-.1219-2.5594,0-1.4895,.1625-2.8572,.4875-4.103,.3521-1.2458,.826-2.2344,1.4218-2.9656,.6229-.7583,1.3406-1.1239,2.1531-1.0969,.6771,0,1.2323,.2573,1.6656,.7719,.4333,.4875,.7584,1.1239,.975,1.9093,.2167,.7855,.3656,1.6115,.4469,2.4781,.0812,.8667,.1083,1.6656,.0812,2.3969-.027,.8395-.1218,1.7333-.2843,2.6812Z"></path><path d="M66.5084,24.8622c-.4063,.7583-.8531,1.3135-1.3406,1.6656-.4875,.3521-.9479,.5958-1.3812,.7312-.4063,.1084-.7177,.1625-.9344,.1625-.5958,0-1.0292-.1489-1.3-.4468-.2708-.298-.4469-.65-.5281-1.0563-.0813-.4333-.1219-.826-.1219-1.1781,0-.4604,.0271-1.1104,.0813-1.95,.0812-.8666,.1625-1.8281,.2437-2.8843,.1083-1.0833,.2302-2.1802,.3656-3.2906,.1354-1.1375,.2573-2.1937,.3657-3.1687l5.078-.0812,.2438-2.8031h-5.0781l.8125-6.1343h-2.7218c-.3792,1.9771-1.0563,3.4937-2.0313,4.55-.9479,1.0562-2.4239,1.5844-4.428,1.5844h-4.4201c.0812-.7854,.1625-1.625,.2437-2.5187,.1084-.8937,.2438-1.7333,.4063-2.5187,.1896-.7854,.4333-1.4218,.7312-1.9093,.2979-.4875,.6771-.7313,1.1375-.7313,.1354,0,.2438,.0135,.325,.0406,.1083,0,.176,.0135,.2031,.0406-.1083,.7042,.0407,1.3,.4469,1.7875,.4333,.4604,.9479,.7042,1.5437,.7313,.6229,0,1.1104-.1354,1.4625-.4062,.3792-.2979,.65-.6365,.8125-1.0156,.1625-.4062,.2437-.7583,.2437-1.0562,0-.8667-.3385-1.5844-1.0156-2.1531-.65-.5687-1.5844-.8531-2.8031-.8531-1.8416,0-3.3718,.4468-4.5905,1.3406-1.2187,.8937-2.1666,2.1395-2.8437,3.7374-.65,1.5708-1.0969,3.3989-1.3406,5.4843h-3.25l-.3656,2.9656,3.25-.0407c-.0813,1.1375-.1896,2.4781-.325,4.0219-.1084,1.5437-.2302,3.1687-.3657,4.8749-.1083,1.6791-.2166,3.3041-.325,4.8749-.1083,1.5438-.2166,2.8979-.325,4.0625-.0812,.7854-.176,1.6249-.2843,2.5187-.0813,.8937-.2167,1.7333-.4063,2.5187-.1625,.7854-.3927,1.4219-.6906,1.9093-.2979,.4875-.6771,.7313-1.1375,.7313-.1895,0-.3656-.0271-.5281-.0813,.1083-.7041-.0406-1.2999-.4469-1.7874-.4062-.4604-.9208-.7042-1.5437-.7313-.5958-.0271-1.0833,.1084-1.4625,.4063-.3791,.2979-.65,.65-.8124,1.0562-.1625,.4062-.2438,.7719-.2438,1.0969,0,.8937,.3385,1.5979,1.0156,2.1124,.65,.5417,1.5979,.8125,2.8437,.8125,1.1104,0,2.099-.1625,2.9656-.4875,.8667-.325,1.6385-.7989,2.3156-1.4218,.6771-.6229,1.2458-1.3677,1.7062-2.2344,.4604-.8666,.8396-1.8416,1.1375-2.9249,.325-1.0833,.5552-2.2479,.6906-3.4937,.1354-1.1375,.2709-2.4781,.4063-4.0218,.1354-1.5709,.2708-3.1958,.4062-4.875,.1354-1.7062,.2573-3.3312,.3656-4.8749,.1084-1.5708,.2032-2.9385,.2844-4.1031l4.2352-.0671-.0183,.1484,3.25-.0407c-.1354,1.2729-.2708,2.6136-.4062,4.0219-.1355,1.3812-.2438,2.7083-.325,3.9812-.0813,1.2458-.149,2.3291-.2032,3.2499-.027,1.1104,.0813,2.1802,.325,3.2094,.2438,1.0021,.7313,1.8146,1.4625,2.4375,.7583,.6229,1.8823,.9344,3.3718,.9344,1.5167,0,2.9385-.4198,4.2656-1.2594,1.3271-.8666,2.451-2.1666,3.3718-3.8999l-2.0718-1.3Z"></path></svg>