<svg xmlns="http://www.w3.org/2000/svg" id="a" width="148.7988" height="31.9087" viewBox="0 0 148.7988 31.9087"><polygon points="36.2964 22.6463 36.2078 22.6463 33.1057 .4432 26.1478 .4432 26.1478 31.4655 30.4022 31.4655 30.4022 7.9772 30.4908 7.9772 34.0363 31.4655 38.1135 31.4655 41.6588 7.9772 41.7476 7.9772 41.7476 31.4655 46.3566 31.4655 46.3566 .4432 39.3986 .4432 36.2964 22.6463"></polygon><polygon points="98.0972 .4432 83.0294 .4432 83.0294 4.875 88.1259 4.875 88.1259 31.4655 93.0007 31.4655 93.0007 4.875 98.0972 4.875 98.0972 .4432"></polygon><path d="M59.6556,24.4633c0,1.0636-.2216,1.8318-.6648,2.3045-.4136,.4728-1.0193,.7091-1.817,.7091s-1.4182-.2363-1.8613-.7091c-.4137-.4727-.6205-1.2409-.6205-2.3045V.4432h-4.8749V24.1088c0,2.5113,.6204,4.4465,1.8613,5.8056,1.2409,1.3295,3.0432,1.9943,5.4068,1.9943s4.1658-.6648,5.4067-1.9943c1.2409-1.3591,1.8613-3.2943,1.8613-5.8056V.4432h-4.6976V24.4633Z"></path><path d="M76.1569,14.093c-1.5954-1.3886-2.7033-2.5704-3.3238-3.5454-.5909-.975-.8863-2.0238-.8863-3.1465,0-1.9796,.8125-2.9693,2.4374-2.9693,.7977,0,1.4034,.2511,1.817,.7534,.4137,.4727,.6205,1.2409,.6205,2.3045v1.5954h4.609v-1.2852c0-2.5114-.6057-4.4317-1.817-5.7614-1.1818-1.3589-2.9397-2.0386-5.2738-2.0386-2.3636,0-4.1658,.6796-5.4067,2.0386-1.2409,1.3297-1.8614,3.2205-1.8614,5.6727,0,1.8022,.3989,3.4272,1.1966,4.8749,.7977,1.4182,2.2011,3.0136,4.2102,4.7863,1.5954,1.3886,2.6886,2.5852,3.2795,3.5897,.5909,.975,.8863,2.1125,.8863,3.4125,0,1.0932-.2216,1.8909-.6647,2.3931-.4137,.4728-1.0341,.7091-1.8614,.7091-1.684,0-2.5261-1.0045-2.5261-3.0136v-2.1272h-4.6089v1.7727c0,2.5113,.6057,4.4465,1.817,5.8056,1.2114,1.3295,2.9988,1.9943,5.3624,1.9943,2.3932,0,4.2102-.6796,5.451-2.0386,1.2704-1.3591,1.9057-3.3091,1.9057-5.8499,0-1.95-.3841-3.6489-1.1523-5.0966s-2.1716-3.0579-4.2102-4.8306Z"></path><path d="M102.1907,.4432l-5.0525,31.0223h4.5205l.886-6.0715h5.54v-.0886l.886,6.1601h4.875L108.7938,.4432h-6.603Zm.93,20.7406l2.1281-15.3338h.088l2.172,15.3338h-4.388Z"></path><path d="M146.9818,2.3932c-1.211-1.3-3.029-1.95-5.451-1.95h-7.446V31.4655h7.446c2.422,0,4.24-.65,5.451-1.95s1.817-3.2056,1.817-5.7169V8.1102c0-2.5114-.606-4.4171-1.817-5.717Zm-3.058,21.627c0,1.0636-.222,1.8317-.665,2.3045-.413,.4727-1.019,.709-1.817,.709h-2.482V4.875h2.482c.798,0,1.404,.2363,1.817,.7091,.443,.4727,.665,1.2408,.665,2.3045V24.0202Z"></path><path d="M130.7028,27.6985v-5.451c0-1.8318-.251-3.2943-.753-4.3875-.473-1.0932-1.3-1.817-2.482-2.1715v-.0887c2.127-.8568,3.191-2.8954,3.191-6.1158v-1.9057c0-2.4227-.576-4.2101-1.729-5.3624-1.152-1.1818-2.984-1.7727-5.495-1.7727h-7.224V31.4655h4.875v-13.2953h1.684c1.123,0,1.906,.2807,2.349,.8421,.473,.5613,.709,1.5511,.709,2.9692v5.6727c0,1.1522,.03,1.95,.089,2.3931,.059,.4432,.177,.9159,.354,1.4182h4.964c-.236-.5318-.384-1.0636-.443-1.5954-.059-.5614-.089-1.2852-.089-2.1716Zm-4.919-17.2395c0,1.1818-.251,2.0238-.754,2.5261-.472,.5022-1.196,.7534-2.171,.7534h-1.773V4.875h2.216c.857,0,1.477,.2511,1.861,.7534,.414,.5022,.621,1.3147,.621,2.4374v2.3932Z"></path><polygon points="0 12.3861 2.1236 12.3861 2.1236 23.4655 4.1548 23.4655 4.1548 12.3861 6.2783 12.3861 6.2783 10.5395 0 10.5395 0 12.3861"></polygon><polygon points="11.4719 15.8023 9.293 15.8023 9.293 10.5395 7.2618 10.5395 7.2618 23.4655 9.293 23.4655 9.293 17.6488 11.4719 17.6488 11.4719 23.4655 13.5031 23.4655 13.5031 10.5395 11.4719 10.5395 11.4719 15.8023"></polygon><polygon points="15.0159 23.4655 20.5557 23.4655 20.5557 21.6189 17.0471 21.6189 17.0471 17.6488 19.8354 17.6488 19.8354 15.8023 17.0471 15.8023 17.0471 12.3861 20.5557 12.3861 20.5557 10.5395 15.0159 10.5395 15.0159 23.4655"></polygon></svg>